<?xml version="1.0" encoding="UTF-8"?>
<svg width="24px" height="24px" viewBox="0 0 24 24" version="1.1" xmlns="http://www.w3.org/2000/svg" xmlns:xlink="http://www.w3.org/1999/xlink">
    <title>Icons/arrow-right</title>
    <g id="Symbols" stroke="none" stroke-width="1" fill="none" fill-rule="evenodd">
        <g id="Icons/arrow-right" fill="#000000">
            <path d="M12.7102,17.7160628 C12.520834,17.5282433 12.4143183,17.2725755 12.4143183,17.0058628 C12.4143183,16.7391502 12.520834,16.4834823 12.7102,16.2956629 L16.0011266,13.0047362 L5.99831003,13.0047362 C5.44586972,13.0047362 4.99802837,12.5568948 4.99802837,12.0044545 C4.99802837,11.4520142 5.44586972,11.0041729 5.99831003,11.0041729 L16.0011266,11.0041729 L12.7102,7.71324619 C12.520834,7.52542671 12.4143183,7.26975885 12.4143183,7.00304621 C12.4143183,6.73633358 12.520834,6.48066572 12.7102,6.29284623 C13.1003473,5.90501343 13.7304498,5.90501343 14.1205971,6.29284623 L18.4118055,10.5940574 C18.7457553,10.9260178 18.950556,11.3636653 18.993513,11.8288655 L19.0019716,12.0044545 C18.9971037,12.5307075 18.7850663,13.0338471 18.4118055,13.4048489 L14.1205971,17.70606 C13.7332062,18.0966735 13.1030923,18.1011424 12.7102,17.7160628 Z" id="Path"></path>
        </g>
    </g>
</svg>