<?xml version="1.0" encoding="UTF-8"?>
<svg width="80px" height="80px" viewBox="0 0 80 80" version="1.1" xmlns="http://www.w3.org/2000/svg" xmlns:xlink="http://www.w3.org/1999/xlink">
    <title>Icons/Born</title>
    <g id="Symbols" stroke="none" stroke-width="1" fill="none" fill-rule="evenodd">
        <g id="Group-7" fill="#BD1E73" transform="translate(19.000000, 2.000000)">
            <path d="M22.4999256,4.54747351e-13 L22.8640779,0.00375452539 C29.6476529,0.143718734 35.6361238,4.18548271 38.354,10.2083425 L38.5883636,10.2269201 C42.1864419,10.5832744 45,13.6061976 45,17.2875972 L44.9960319,17.5267413 C44.8773018,21.0992786 42.1082505,23.9998107 38.5883688,24.348422 L38.354,24.3683425 C38.0675525,25.0033358 37.746824,25.6124763 37.3929839,26.197683 C42.1762881,30.435497 45,36.5466648 45,43.1252392 L45,53.4168261 C45,65.8874326 34.9282317,76 22.4999256,76 C10.0717431,76 0,65.8874072 0,53.4168261 L0,43.1252392 C0,37.2631415 2.24214408,31.772153 6.11474948,27.6464045 C6.28619274,27.3449002 6.53423787,27.0882335 6.83894608,26.9080874 C7.08928686,26.6659293 7.34535161,26.4281894 7.60729204,26.1960651 C7.25187248,25.6107628 6.93041981,25.0004607 6.645,24.3683425 L6.41164844,24.3484216 C2.81362367,23.992059 0,20.9690663 0,17.2875972 L0.00396826097,17.0484626 C0.122703364,13.4760643 2.89186925,10.5755323 6.41165361,10.2269205 L6.64768179,10.2028737 C9.41236597,4.07809187 15.5673243,4.54747351e-13 22.4999256,4.54747351e-13 L22.15,0.003 L22.2344019,0 C22.2692868,0 22.3041158,0.000243202081 22.3388869,0.000727981509 L22.4999256,4.54747351e-13 Z M6.97160684,33.0190389 L6.9223415,33.0939899 C5.04529751,36.0307895 4,39.4899046 4,43.1252392 L4,53.4168261 C4,63.6818845 12.2845146,72 22.4999256,72 C32.0871563,72 39.9736119,64.6736505 40.9074599,55.2873142 L37.890697,55.2876712 C23.7056756,55.2876712 11.3955527,46.1141771 6.97160684,33.0190389 Z M37.7588219,32.6119167 L37.6922523,32.8352571 C35.7435744,39.3068741 31.7302776,44.9352428 26.3331011,48.8372878 C29.8825455,50.4162487 33.7981105,51.2876712 37.890697,51.2876712 L41,51.287 L41,43.1252392 C41,39.2889757 39.8359619,35.6489701 37.7588219,32.6119167 Z M10.0706903,29.3690972 L10.0849533,29.4220725 C11.8809315,36.6866216 16.3711726,42.786335 22.3630244,46.6816586 C28.366821,42.9926935 32.7075587,36.9610549 34.318804,29.9606486 C31.1872859,32.8509804 27.0080754,34.5753425 22.4999256,34.5753425 L22.135784,34.5715879 C17.4693933,34.4753029 13.1791419,32.5325521 10.0706903,29.3690972 Z M22.3022518,4.00143442 C16.6681105,4.08323547 11.7360689,7.65646842 9.88554537,12.8617248 L9.41269646,14.1917808 L7.12505582,14.1917808 C5.39663939,14.1917808 4,15.5804367 4,17.2875972 C4,18.9948919 5.3966253,20.3835616 7.12505582,20.3835616 L9.41269646,20.3835616 L9.88554537,21.7136176 C11.7576797,26.9796622 16.7837257,30.5753425 22.4999256,30.5753425 C28.2163487,30.5753425 33.2422949,26.9797336 35.1144546,21.7136176 L35.5873035,20.3835616 L37.8749442,20.3835616 C39.6034632,20.3835616 41,18.994952 41,17.2875972 C41,15.5803766 39.6034491,14.1917808 37.8749442,14.1917808 L35.5873035,14.1917808 L35.1144546,12.8617248 C34.0470103,9.8591576 31.9542992,7.39965682 29.2929107,5.8400519 C29.3509214,6.19532998 29.3809524,6.55988993 29.3809524,6.93157847 C29.3809524,10.7792284 26.162613,13.8630137 22.2344019,13.8630137 C20.3331422,13.8630137 18.5414338,13.1368146 17.211621,11.8627527 C16.4140324,11.0986021 16.3869255,9.83256232 17.1510761,9.03497369 C17.9152267,8.23738506 19.1812665,8.21027818 19.9788552,8.97442879 C20.5672038,9.53811151 21.3688158,9.8630137 22.2344019,9.8630137 C23.9907877,9.8630137 25.3809524,8.53096979 25.3809524,6.93157847 C25.3809524,5.33205666 23.9908023,4 22.2344019,4 Z" id="Combined-Shape"></path>
        </g>
    </g>
</svg>