<?xml version="1.0" encoding="UTF-8"?>
<svg width="24px" height="24px" viewBox="0 0 24 24" version="1.1" xmlns="http://www.w3.org/2000/svg" xmlns:xlink="http://www.w3.org/1999/xlink">
    <title>Icons/chevron-down</title>
    <g id="Symbols" stroke="none" stroke-width="1" fill="none" fill-rule="evenodd">
        <g id="Icons/chevron-down" fill="#000000">
            <path d="M17.7072195,9.29311385 C17.5196686,9.10544268 17.2652228,9 16.9999007,9 C16.7345786,9 16.4801327,9.10544268 16.2925818,9.29311385 L12.235311,13.349718 C12.105147,13.4798427 11.8941512,13.4798427 11.7639873,13.349718 L7.70738313,9.29311385 C7.31692579,8.90247243 6.68372015,8.9023232 6.29307873,9.29278053 C5.9024373,9.68323786 5.90228806,10.3164435 6.29274539,10.7070849 L10.3500162,14.7643557 C10.787599,15.2019832 11.3811154,15.4478435 11.9999825,15.4478435 C12.6188495,15.4478435 13.2123659,15.2019832 13.6499487,14.7643557 L17.7072195,10.7070849 C18.0975935,10.3165931 18.0975935,9.68360572 17.7072195,9.29311385 Z" id="Path"></path>
        </g>
    </g>
</svg>