<?xml version="1.0" encoding="UTF-8"?>
<svg width="24px" height="24px" viewBox="0 0 24 24" version="1.1" xmlns="http://www.w3.org/2000/svg" xmlns:xlink="http://www.w3.org/1999/xlink">
    <title>Icons/chevron-left</title>
    <g id="Symbols" stroke="none" stroke-width="1" fill="none" fill-rule="evenodd">
        <g id="Icons/chevron-left" fill="#000000">
            <path d="M9.29311385,16.7072195 C9.10544268,16.5196686 9,16.2652228 9,15.9999007 C9,15.7345786 9.10544268,15.4801327 9.29311385,15.2925818 L13.349718,11.235311 C13.4798427,11.105147 13.4798427,10.8941512 13.349718,10.7639873 L9.29311385,6.70738313 C8.90247243,6.31692579 8.9023232,5.68372015 9.29278053,5.29307873 C9.68323786,4.9024373 10.3164435,4.90228806 10.7070849,5.29274539 L14.7643557,9.3500162 C15.2019832,9.78759898 15.4478435,10.3811154 15.4478435,10.9999825 C15.4478435,11.6188495 15.2019832,12.2123659 14.7643557,12.6499487 L10.7070849,16.7072195 C10.3165931,17.0975935 9.68360572,17.0975935 9.29311385,16.7072195 Z" id="Path" transform="translate(12.223922, 11.000000) scale(-1, 1) translate(-12.223922, -11.000000) "></path>
        </g>
    </g>
</svg>