<?xml version="1.0" encoding="UTF-8"?>
<svg width="24px" height="24px" viewBox="0 0 24 24" version="1.1" xmlns="http://www.w3.org/2000/svg" xmlns:xlink="http://www.w3.org/1999/xlink">
    <title>Icons/Englisch</title>
    <g id="Symbols" stroke="none" stroke-width="1" fill="none" fill-rule="evenodd">
        <g id="Icons/Englisch" fill-rule="nonzero">
            <circle id="Oval" fill="#F3F4F5" cx="12" cy="12" r="12"></circle>
            <g id="Group" transform="translate(0.413391, 0.413391)" fill="#0052B4">
                <path d="M2.06723437,4.28076563 C1.124625,5.50715625 0.413859375,6.92067188 0,8.45625 L6.24271875,8.45625 L2.06723437,4.28076563 Z" id="Path"></path>
                <path d="M23.1732187,8.45625 C22.7593594,6.92071875 22.0485469,5.50720313 21.1059844,4.2808125 L16.9305937,8.45625 L23.1732187,8.45625 Z" id="Path"></path>
                <path d="M0,14.7171094 C0.41390625,16.2526406 1.12467187,17.6661562 2.06723438,18.8925 L6.24257813,14.7171094 L0,14.7171094 Z" id="Path"></path>
                <path d="M18.8924531,2.06728125 C17.6660625,1.12467187 16.2525938,0.41390625 14.7170156,0 L14.7170156,6.24267187 L18.8924531,2.06728125 Z" id="Path"></path>
                <path d="M4.28076562,21.1059375 C5.50715625,22.0485469 6.92067187,22.7593125 8.45620312,23.1732187 L8.45620312,16.9305937 L4.28076562,21.1059375 Z" id="Path"></path>
                <path d="M8.45615625,0 C6.920625,0.41390625 5.50710937,1.12467187 4.28076562,2.06723437 L8.45615625,6.242625 L8.45615625,0 Z" id="Path"></path>
                <path d="M14.7170625,23.1732187 C16.2525937,22.7593125 17.6661094,22.0485469 18.8924531,21.1059844 L14.7170625,16.9305937 L14.7170625,23.1732187 Z" id="Path"></path>
                <path d="M16.9305937,14.7171094 L21.1059844,18.8925469 C22.0485469,17.6662031 22.7593594,16.2526406 23.1732187,14.7171094 L16.9305937,14.7171094 Z" id="Path"></path>
            </g>
            <g id="Group" fill="#D80027">
                <path d="M23.8984219,10.4347969 L13.5652969,10.4347969 L13.56525,10.4347969 L13.56525,0.101578125 C13.0528594,0.034875 12.5304844,0 12,0 C11.4694219,0 10.9471406,0.034875 10.4347969,0.101578125 L10.4347969,10.4347031 L10.4347969,10.43475 L0.101578125,10.43475 C0.034875,10.9471406 0,11.4695156 0,12 C0,12.5305781 0.034875,13.0528594 0.101578125,13.5652031 L10.4347031,13.5652031 L10.43475,13.5652031 L10.43475,23.8984219 C10.9471406,23.965125 11.4694219,24 12,24 C12.5304844,24 13.0528594,23.9651719 13.5652031,23.8984219 L13.5652031,13.5652969 L13.5652031,13.56525 L23.8984219,13.56525 C23.965125,13.0528594 24,12.5305781 24,12 C24,11.4695156 23.965125,10.9471406 23.8984219,10.4347969 L23.8984219,10.4347969 Z" id="Path"></path>
                <path d="M15.1304531,15.1304531 L20.4852656,20.4853125 C20.7315469,20.239125 20.9664844,19.9817344 21.1906406,19.7149219 L16.6061719,15.1304531 L15.1304531,15.1304531 L15.1304531,15.1304531 Z" id="Path"></path>
                <path d="M8.86954688,15.1305 L8.86945313,15.1305 L3.5146875,20.4852656 C3.760875,20.7315469 4.01826563,20.9664844 4.28507813,21.1906406 L8.86954688,16.6060781 L8.86954688,15.1305 Z" id="Path"></path>
                <path d="M8.86954687,8.86964063 L8.86954687,8.86954688 L3.51473437,3.5146875 C3.26845312,3.760875 3.03351562,4.01826563 2.80935937,4.28507813 L7.393875,8.86964063 L8.86954687,8.86964063 L8.86954687,8.86964063 Z" id="Path"></path>
                <path d="M15.1304531,8.86964063 L20.4853125,3.51473438 C20.239125,3.26845313 19.9817344,3.03351563 19.7149219,2.80940625 L15.1304531,7.39392188 L15.1304531,8.86964063 Z" id="Path"></path>
            </g>
        </g>
    </g>
</svg>