<?xml version="1.0" encoding="UTF-8"?>
<svg width="80px" height="80px" viewBox="0 0 80 80" version="1.1" xmlns="http://www.w3.org/2000/svg" xmlns:xlink="http://www.w3.org/1999/xlink">
    <title>Icons/Experiences</title>
    <g id="Symbols" stroke="none" stroke-width="1" fill="none" fill-rule="evenodd">
        <g id="Icons/Experiences" fill="#BD1E73">
            <path d="M51.7591859,12.4907163 C52.0558148,13.6616029 53.2603481,14.3570485 54.4233375,14.0284413 C59.0480005,12.7218971 63.3158816,16.9894424 62.0094102,21.6147801 C61.6809021,22.7770929 62.3764517,23.9818062 63.5473134,24.2787545 C68.2061434,25.4593147 69.7683238,31.2893735 66.3241636,34.6421371 C65.458494,35.4843662 65.458494,36.8753958 66.3245619,37.7180125 C69.1904701,40.507869 68.5894557,45.013673 65.6221655,47.1276062 L76.4219614,57.9283221 C77.4954331,59.0017938 77.0285108,60.8329048 75.5720805,61.2612667 L68.06821,63.4677667 L65.3963455,71.4837601 C64.9424017,72.8455915 63.2579535,73.2865002 62.1960717,72.3690357 L62.0847654,72.2655181 L51.1749493,61.3567419 C49.2644704,64.8221505 44.3606062,65.6925177 41.3960424,62.6462923 C40.5531285,61.7802536 39.1623006,61.7802536 38.3194624,62.6462145 C35.4068152,65.6390933 30.6223005,64.8514668 28.6441322,61.5367181 L17.9152346,72.2655181 C16.8639337,73.3168191 15.0738106,72.8942283 14.6036545,71.4837601 L11.9312522,63.4677667 L4.42791952,61.2612667 C3.02171096,60.8476759 2.53794501,59.1264094 3.47246208,58.041985 L3.57803861,57.9283221 L14.2630174,47.2439817 C11.1499763,45.1830807 10.4714528,40.5597982 13.3916252,37.7178871 C14.2570249,36.8756037 14.2570249,35.4841582 13.3916902,34.6419382 C9.94727104,31.2898302 11.5095269,25.4594899 16.1678572,24.27882 C17.3393525,23.9817937 18.0348516,22.7771678 17.7066623,21.6148304 C16.3993311,16.9897499 20.6672378,12.7218432 25.292158,14.0284601 C26.4551308,14.3570625 27.6599396,13.6615164 27.9569026,12.4905967 C29.137462,7.83177002 34.9676953,6.26945284 38.3193867,9.71346964 C39.1623006,10.5795083 40.5531285,10.5795083 41.3960424,9.71346964 C44.7476554,6.26953345 50.5776448,7.83169531 51.7591859,12.4907163 Z M17.6783626,49.4860055 L8.78825217,58.3737667 L14.0630662,59.9257109 C14.6388161,60.0950492 15.1051786,60.5128684 15.3383751,61.0597321 L15.3961001,61.2119864 L17.3742522,67.1487667 L26.2422096,58.2813238 C25.9355481,58.228005 25.6122429,58.2408607 25.2920916,58.3313207 C20.6672378,59.6379188 16.3993311,55.370012 17.706507,50.7454812 C17.8279552,50.3153522 17.8093299,49.8795129 17.6783626,49.4860055 Z M62.0094975,50.7452909 C63.3158816,55.3703195 59.0480005,59.6378649 54.4232711,58.3313019 C54.191154,58.2657163 53.9573851,58.2409269 53.7295103,58.2525805 L62.62421,67.1487667 L64.6038999,61.2119864 C64.7936796,60.6426472 65.2278778,60.1914946 65.7827162,59.977965 L65.9369338,59.9257109 L71.21121,58.3737667 L62.1175325,49.2809873 C61.9175179,49.7247908 61.8664118,50.2390314 62.0094975,50.7452909 Z M31.8342502,13.4735389 C30.9837354,16.827104 27.5341814,18.8185602 24.2045917,17.8777716 C22.5895562,17.4214972 21.0993246,18.9117288 21.5560022,20.5273645 C22.496053,23.8567113 20.5046947,27.3058056 17.1507634,28.1561768 C15.5240534,28.568472 14.9784625,30.604618 16.1815091,31.7754228 C18.6603969,34.188095 18.6603969,38.1716669 16.181444,40.5844025 C14.9784625,41.7551439 15.5240534,43.7912899 17.1509295,44.2036273 C20.5046947,45.0539564 22.496053,48.5030506 21.5558469,51.8329471 C21.0993246,53.4480331 22.5895562,54.9382647 24.2045253,54.4820091 C27.5343714,53.5411481 30.9838632,55.5328587 31.8343249,58.8871467 C32.246546,60.513564 34.2825509,61.0590314 35.452949,59.8563936 C37.8662488,57.3768865 41.8491803,57.3768865 44.2625558,59.8564714 C45.4329098,61.0590638 47.469189,60.5135544 47.8816471,58.8874871 C48.731207,55.5330777 52.1808764,53.5410968 55.5108374,54.4819903 C57.1258871,54.9382688 58.616371,53.4479021 58.1601971,51.8328967 C57.2192581,48.5037074 59.2108806,45.0541558 62.5647581,44.2035618 C64.1917177,43.7912858 64.7372998,41.7551729 63.5348186,40.5846014 C61.0549424,38.1718749 61.0549424,34.1878871 63.5344202,31.7755482 C64.7372998,30.6045891 64.1917177,28.5684762 62.5643712,28.1561021 C59.2108806,27.3056062 57.2192581,23.8560545 58.1601098,20.5271742 C58.616371,18.9118598 57.1258871,17.4214932 55.5109038,17.8777529 C52.1810664,18.8186114 48.7313347,16.826885 47.8818023,13.4735166 C47.4691263,11.8462637 45.432944,11.300663 44.2625558,12.5032906 C41.8491803,14.9828754 37.8662488,14.9828754 35.4528733,12.5032906 C34.2825167,11.3006955 32.2466087,11.8462541 31.8342502,13.4735389 Z M34,27 C35.1045695,27 36,27.8954305 36,29 L36,45 C36,46.1045695 35.1045695,47 34,47 C32.8954305,47 32,46.1045695 32,45 L32,29 C32,27.8954305 32.8954305,27 34,27 Z M49,27 C50.1045695,27 51,27.8954305 51,29 C51,29.4056254 50.8792475,29.7830476 50.6717289,30.0982801 C50.66316,30.1302295 50.6531465,30.1618123 50.6423011,30.1933098 L45.4332106,45.321607 C45.073598,46.365998 43.9354281,46.9211205 42.8910372,46.5615078 C41.8466462,46.2018952 41.2915237,45.0637253 41.6511363,44.0193344 L46.1341754,30.9999739 L42,31 C40.8954305,31 40,30.1045695 40,29 C40,27.8954305 40.8954305,27 42,27 L49,27 Z" id="Combined-Shape"></path>
        </g>
    </g>
</svg>