<?xml version="1.0" encoding="UTF-8"?>
<svg width="80px" height="80px" viewBox="0 0 80 80" version="1.1" xmlns="http://www.w3.org/2000/svg" xmlns:xlink="http://www.w3.org/1999/xlink">
    <title>Icons/Jazyk</title>
    <g id="Symbols" stroke="none" stroke-width="1" fill="none" fill-rule="evenodd">
        <g id="Icons/Jazyk" fill="#BD1E73">
            <path d="M64,23 C68.412,23 72,26.588 72,31 L72,69 C72,69.768 71.56,70.468 70.868,70.804 C70.588,70.936 70.292,71 70,71 C69.556,71 69.112,70.852 68.748,70.564 L59.296,63 L32,63 C27.588,63 24,59.412 24,55 L24,54 C24,52.896 24.896,52 26,52 C27.104,52 28,52.896 28,54 L28,55 C28,57.204 29.792,59 32,59 L60,59 C60.452,59 60.896,59.156 61.248,59.436 L68,64.836 L68,31 C68,28.796 66.208,27 64,27 C62.896,27 62,26.104 62,25 C62,23.896 62.896,23 64,23 Z M52,9 C56.412,9 60,12.588 60,17 L60,41 C60,45.412 56.412,49 52,49 L22.724,49 L11.28,58.536 C10.916,58.84 10.46,59 10,59 C9.712,59 9.42,58.936 9.152,58.812 C8.448,58.484 8,57.776 8,57 L8,17 C8,12.588 11.588,9 16,9 L52,9 Z M52,13 L16,13 C13.792,13 12,14.796 12,17 L12,52.732 L20.72,45.464 C21.08,45.164 21.532,45 22,45 L52,45 C54.208,45 56,43.204 56,41 L56,17 C56,14.796 54.208,13 52,13 Z M38,31 C39.104,31 40,31.896 40,33 C40,34.104 39.104,35 38,35 L22,35 C20.896,35 20,34.104 20,33 C20,31.896 20.896,31 22,31 Z M46,23 C47.104,23 48,23.896 48,25 C48,26.104 47.104,27 46,27 L22,27 C20.896,27 20,26.104 20,25 C20,23.896 20.896,23 22,23 L46,23 Z" id="Combined-Shape"></path>
        </g>
    </g>
</svg>