<?xml version="1.0" encoding="UTF-8"?>
<svg width="80px" height="80px" viewBox="0 0 80 80" version="1.1" xmlns="http://www.w3.org/2000/svg" xmlns:xlink="http://www.w3.org/1999/xlink">
    <title>Icons/Price</title>
    <g id="Symbols" stroke="none" stroke-width="1" fill="none" fill-rule="evenodd">
        <g id="wallet" fill="#BD1E73" transform="translate(11.000000, 8.000000)">
            <path d="M59,28 L45,28 C40.612,28 37,31.612 37,36 C37,40.388 40.612,44 45,44 L53,44 L53,56 C53,57.098 52.098,58 51,58 L10,58 C6.708,58 4,55.292 4,52 L4,13 C4,9.708 6.708,7 10,7 L14,7 C15.098,7 16,6.098 16,5 C16,3.902 15.098,3 14,3 L10,3 C4.514,3 0,7.514 0,13 L0,52 C0,57.486 4.514,62 10,62 L51,62 C54.292,62 57,59.292 57,56 L57,44 L59,44 C60.098,44 61,43.098 61,42 L61,30 C61,28.902 60.098,28 59,28 Z M57,40 L45,40 C42.806,40 41,38.194 41,36 C41,33.806 42.806,32 45,32 L57,32 L57,40 Z" id="Shape"></path>
            <path d="M17.3826018,9.77506073 C15.0988716,10.7145513 15.853976,13.4982983 18.119289,13.4982983 L50.8609404,13.4982983 C51.9843883,13.4982983 52.9072936,14.3683399 52.9072936,15.427437 L52.9072936,29.0708613 C52.9072936,30.1299585 53.8301989,31 54.9536468,31 C56.0770947,31 57,30.1299585 57,29.0708613 L57,15.427437 C56.9979536,13.8937718 56.351306,12.421839 55.1992092,11.337663 C54.0491587,10.251558 52.4877912,9.64195016 50.8609404,9.64002103 L50.2061073,9.64002103 L46.6249892,1.20968512 C46.2095795,0.235470098 45.0226947,-0.250672843 43.9851936,0.129367472 L17.3826018,9.77506073 Z M45.7859844,9.64002103 L29.1491328,9.64002103 L43.5759229,4.41205528 L45.7859844,9.64002103 Z" id="Shape"></path>
        </g>
    </g>
</svg>