<?xml version="1.0" encoding="UTF-8"?>
<svg width="24px" height="24px" viewBox="0 0 24 24" version="1.1" xmlns="http://www.w3.org/2000/svg" xmlns:xlink="http://www.w3.org/1999/xlink">
    <title>Icons/search</title>
    <g id="Symbols" stroke="none" stroke-width="1" fill="none" fill-rule="evenodd">
        <g id="Icons/search" fill="#000000">
            <path d="M19.7080117,18.2980212 L16.6109847,15.199686 C18.9283277,12.1029082 18.2964638,7.71387254 15.199686,5.39652952 C12.1029082,3.07918649 7.71387254,3.71105039 5.39652952,6.80782824 C3.07918649,9.90460608 3.71105039,14.2936417 6.80782824,16.6109847 C9.29541665,18.4724713 12.7120664,18.4724713 15.199686,16.6109847 L18.2980212,19.7093199 C18.6873804,20.0986791 19.3186525,20.0986791 19.7079806,19.7093199 C20.0973398,19.3199606 20.0973398,18.6886885 19.7079806,18.2993604 L19.7080117,18.2980212 Z M11.0295774,16.0129768 C8.27730814,16.0129768 6.04617793,13.7818466 6.04617793,11.0295774 C6.04617793,8.27730814 8.27730814,6.04617793 11.0295774,6.04617793 C13.7818466,6.04617793 16.0129768,8.27730814 16.0129768,11.0295774 C16.010049,13.7806007 13.7806319,16.010049 11.0295774,16.0129768 Z" id="Shape"></path>
        </g>
    </g>
</svg>