<?xml version="1.0" encoding="UTF-8"?>
<svg width="24px" height="24px" viewBox="0 0 24 24" version="1.1" xmlns="http://www.w3.org/2000/svg" xmlns:xlink="http://www.w3.org/1999/xlink">
    <title>Icons/send</title>
    <g id="Symbols" stroke="none" stroke-width="1" fill="none" fill-rule="evenodd">
        <g id="Icons/send" fill="#000000">
            <path d="M20.3330199,3.66645776 C19.7817243,3.10747578 18.9778401,2.87829004 18.2146687,3.06254475 L6.02413664,7.20423625 C4.0889154,7.49060125 2.75226419,9.29156058 3.03862919,11.2267506 C3.1499569,11.979111 3.50050016,12.6756669 4.03839143,13.2133707 L5.13089031,14.3065569 C5.18203919,14.3570184 5.21062882,14.4260085 5.21022263,14.4978731 L5.21022263,16.5135828 C5.21169117,17.7675897 6.22788854,18.783787 7.48189541,18.7852556 L9.49760506,18.7852556 C9.56956344,18.7852556 9.638616,18.8137827 9.6895774,18.8645879 L10.7820763,19.9570868 C11.4426686,20.6220535 12.3410705,20.9962808 13.278373,20.996937 C13.665286,20.9966245 14.0496056,20.9333524 14.4162091,20.8096202 C15.6813706,20.389462 16.6007069,19.2907765 16.7912107,17.9713728 L20.9329022,5.81283608 C21.125312,5.04163467 20.8973761,4.22612714 20.3330199,3.66645776 Z M5.08092876,10.2164586 C5.26209016,9.65675797 5.75095724,9.25259744 6.33474815,9.17995166 C6.35830726,9.17682711 6.3816164,9.17282768 6.40473807,9.16795338 L17.2848027,5.30156598 L7.20996583,15.371716 L7.20996583,14.4978419 C7.21143437,13.8949912 6.97134395,13.3166683 6.54340559,12.8920732 L5.45221902,11.7995743 C5.03193581,11.3885085 4.88720666,10.7715349 5.08092876,10.2164586 Z M14.8275248,17.5940834 C14.8221818,17.6174238 14.8188698,17.6407329 14.8155265,17.6640733 C14.699762,18.5084204 13.9214678,19.0990541 13.0771207,18.9832895 C12.7435437,18.9375461 12.4340571,18.7839745 12.1959039,18.5459463 L11.1040612,17.4541036 C10.6792473,17.0260402 10.1007057,16.785981 9.4976363,16.7875433 L8.62376218,16.7875433 L18.6965993,6.71270646 L14.8275248,17.5940834 Z" id="Shape"></path>
        </g>
    </g>
</svg>