<?xml version="1.0" encoding="UTF-8"?>
<svg width="24px" height="24px" viewBox="0 0 24 24" version="1.1" xmlns="http://www.w3.org/2000/svg" xmlns:xlink="http://www.w3.org/1999/xlink">
    <title>Icons/Slovakia</title>
    <g id="Symbols" stroke="none" stroke-width="1" fill="none" fill-rule="evenodd">
        <g id="Icons/Slovakia" fill-rule="nonzero">
            <path d="M0.746390625,16.1738906 C2.44190625,20.7434531 6.84042188,24 12,24 C17.1595781,24 21.5580937,20.7434531 23.2536094,16.1738906 L12,15.1304531 L0.746390625,16.1738906 Z" id="Path" fill="#D80027"></path>
            <path d="M12,9.76996262e-14 C6.84042188,9.76996262e-14 2.44190625,3.2565 0.746390625,7.82610938 L12,8.86954688 L23.2536094,7.8260625 C21.5580937,3.2565 17.1595781,9.76996262e-14 12,9.76996262e-14 Z" id="Path" fill="#F3F4F5"></path>
            <path d="M0.746390625,7.82610937 C0.264046875,9.12609375 0,10.5321562 0,12 C0,13.4678438 0.264046875,14.8739063 0.746390625,16.1738906 L23.2536562,16.1738906 C23.736,14.8739063 24,13.4678438 24,12 C24,10.5321562 23.736,9.12609375 23.2536094,7.82610937 L0.746390625,7.82610937 Z" id="Path" fill="#0052B4"></path>
        </g>
    </g>
</svg>