<?xml version="1.0" encoding="UTF-8"?>
<svg width="24px" height="24px" viewBox="0 0 24 24" version="1.1" xmlns="http://www.w3.org/2000/svg" xmlns:xlink="http://www.w3.org/1999/xlink">
    <title>Icons/star</title>
    <g id="Symbols" stroke="none" stroke-width="1" fill="none" fill-rule="evenodd">
        <g id="Icons/star" fill="#000000">
            <path d="M7.09569502,21.9864682 C6.50612206,21.9840665 5.94718823,21.7235278 5.56625064,21.2735405 C5.18531306,20.8235532 5.0206056,20.2292814 5.1155517,19.6473989 L5.88905769,14.8814539 L2.56946741,11.4534558 C2.0447059,10.91321 1.86517116,10.1253435 2.10406207,9.41108077 C2.34295297,8.696818 2.96035694,8.17549407 3.70454957,8.05966016 L8.20047499,7.36961022 L10.1815684,3.13740389 C10.5202004,2.44158324 11.2262038,2 12.00005,2 C12.7738962,2 13.4798996,2.44158324 13.8185316,3.13740389 L15.7930745,7.36355978 L20.2954504,8.05966016 C21.0396431,8.17549407 21.657047,8.696818 21.8959379,9.41108077 C22.1348288,10.1253435 21.9552941,10.91321 21.4305326,11.4534558 L18.1143426,14.8677529 L18.8849483,19.6480989 C19.0100306,20.4080586 18.6896349,21.1726362 18.0601374,21.6163897 C17.4306399,22.0601433 16.6028572,22.1049546 15.9291344,21.7317498 L12.0026002,19.551592 L8.07116563,21.7317498 C7.77301812,21.8983708 7.43724201,21.9860499 7.09569502,21.9864682 L7.09569502,21.9864682 Z M11.99985,17.549297 C12.3403804,17.5496047 12.6751937,17.6368492 12.9725704,17.8027654 L16.8996046,19.9835732 L16.1358994,15.2019771 C16.0355484,14.5729222 16.2366407,13.9332748 16.6788887,13.4748021 L19.9954287,10.0598049 L15.495603,9.3464033 C14.8320833,9.24467514 14.2634238,8.8178052 13.9804933,8.20907098 L12.0067005,3.98416518 L12.0062004,3.98416518 C12.0049914,3.98063126 12.0031814,3.97733259 12.0008501,3.97441447 L10.0182566,8.21007105 C9.7356528,8.81828362 9.16751698,9.24479369 8.504597,9.3464033 L4.00817155,10.0364532 L7.32041129,13.4742021 C7.76287452,13.9325618 7.96416132,14.5722386 7.86390063,15.2013771 L7.08994461,19.9683221 L11.0267296,17.8031654 C11.3241797,17.6370253 11.6591463,17.5496389 11.99985,17.549297 Z" id="Shape"></path>
        </g>
    </g>
</svg>