<?xml version="1.0" encoding="UTF-8"?>
<svg width="80px" height="80px" viewBox="0 0 80 80" version="1.1" xmlns="http://www.w3.org/2000/svg" xmlns:xlink="http://www.w3.org/1999/xlink">
    <title>Icons/Success</title>
    <g id="Symbols" stroke="none" stroke-width="1" fill="none" fill-rule="evenodd">
        <g id="success" fill="#BD1E73" transform="translate(2.650000, 4.615867)">
            <path d="M48.8932433,0.271213949 C50.8874911,0.910821918 52.0970905,2.50067499 53.3677612,5.44386116 C53.4967306,5.74258591 53.5963049,5.98066295 53.816027,6.51172688 C54.7724606,8.82801582 55.2518945,9.74863483 55.8658627,10.1906774 C56.4983333,10.6453788 57.5326062,10.8142349 60.0994744,11.0057813 C64.3535093,11.3223783 66.1911252,11.8185332 67.5659585,13.6802987 C68.8070835,15.3688253 68.8260577,17.2851175 68.0714801,20.512587 C68.0124674,20.7649953 67.9566428,20.9960116 67.8577721,21.3998593 C67.8479767,21.4398653 67.8479767,21.4398653 67.8382577,21.4795507 C67.8243152,21.5366888 67.8243152,21.5366888 67.8103728,21.5938406 C67.778003,21.7266106 67.778003,21.7266106 67.7457927,21.8592925 C67.231156,23.9828512 67.0867353,25.0515264 67.3191665,25.7592993 C67.5159692,26.3596703 68.2072123,27.0923702 69.5837774,28.2570763 C69.7104365,28.364242 69.8403037,28.4732033 70.0180416,28.6216705 C70.0969808,28.6875901 70.0969808,28.6875901 70.1760905,28.7536189 C70.5151793,29.0369751 70.6572984,29.156224 70.8427401,29.3138153 C73.4955607,31.5682236 74.7,33.2056769 74.7,35.3826533 C74.7,37.5618289 73.4931861,39.2014949 70.83648,41.4573562 L70.6824335,41.5877401 C70.55323,41.6967184 70.411123,41.8156247 70.1749234,42.0128223 C68.2677436,43.6044808 67.5442852,44.322595 67.3188985,45.0080471 C67.0714671,45.7614967 67.2282416,46.7985274 67.8380434,49.2875957 C67.848268,49.3294879 67.848268,49.3294879 67.8584997,49.3714158 C67.9503001,49.7476382 68.0021229,49.9624311 68.0571897,50.1972664 C68.8260633,53.4761692 68.813735,55.3906025 67.5645975,57.0870119 C66.1928951,58.9512011 64.329352,59.4552166 60.098375,59.7624082 C59.9421514,59.774104 59.9421514,59.774104 59.7859711,59.7859085 C57.5367613,59.9567293 56.467826,60.1444768 55.8665513,60.5764462 C55.2523477,61.0182143 54.7771051,61.9310955 53.8157726,64.2565837 C52.1906638,68.1884978 51.1357298,69.7770804 48.8929154,70.4970252 C46.7537676,71.1822669 45.0224095,70.5563477 41.5490544,68.448613 C41.4754573,68.4039422 41.4754573,68.4039422 41.4018867,68.3592682 C41.324305,68.3121217 41.324305,68.3121217 41.2466989,68.264982 C41.0904277,68.1701323 41.0904277,68.1701323 40.9343004,68.0757808 C39.1255489,66.984525 38.120537,66.5185459 37.3510463,66.5185459 C36.5805712,66.5185459 35.5725758,66.9859159 33.76473,68.0774058 C33.6056665,68.1736059 33.6056665,68.1736059 33.4464583,68.2703272 C33.3733858,68.3147544 33.3733858,68.3147544 33.2999984,68.3593942 C33.2235535,68.4057781 33.2235535,68.4057781 33.1469758,68.4522267 C30.3896329,70.1243524 29.020479,70.7341225 27.3334199,70.7341217 C26.81548,70.7352223 26.3007397,70.6551818 25.8079214,70.496958 C23.8126575,69.8564244 22.6035094,68.266739 21.3326023,65.3223208 C21.2039546,65.0242718 21.1049326,64.7874945 20.885273,64.2565819 C19.9244356,61.931822 19.4489166,61.0182125 18.8356528,60.5766766 C18.2026165,60.1224457 17.1629231,59.9525833 14.6007349,59.7613861 C10.3466854,59.4447879 8.509028,58.9484358 7.13425077,57.0858349 C5.89312579,55.3973082 5.87415154,53.4810161 6.62872919,50.2535465 C6.68774187,50.0011383 6.74356642,49.770122 6.84243721,49.3662743 C6.85223258,49.3262682 6.85223258,49.3262682 6.86194186,49.2866225 C6.87604004,49.2288179 6.87604004,49.2288179 6.89013806,49.1710004 C6.92183046,49.0409499 6.92183046,49.0409499 6.95337183,48.9109868 C7.46899792,46.7828927 7.61341146,45.7156294 7.38084707,45.0068757 C7.18518751,44.4102433 6.49694305,43.6788171 5.13647582,42.5264129 C5.0054044,42.4153869 4.87076461,42.3023651 4.68715105,42.1489692 C4.60613523,42.081308 4.60613523,42.081308 4.5250229,42.0136045 C4.19170866,41.7352151 4.04569031,41.6127401 3.86028927,41.4552339 C1.20630651,39.2005597 0,37.5608508 0,35.3834803 C0,33.0142956 1.21339968,31.5172545 4.52531321,28.7545612 C6.42353009,27.1726178 7.15536868,26.4459379 7.38091249,25.7602991 C7.61362231,25.0521216 7.46872155,23.9780425 6.95465126,21.8606747 C6.92077309,21.7213989 6.92077309,21.7213989 6.88671367,21.5820335 C6.87435725,21.5315054 6.87435725,21.5315054 6.86198738,21.4809381 C6.85219866,21.4408961 6.85219866,21.4408961 6.84240365,21.4008213 C6.74926157,21.0197074 6.69663052,20.801847 6.64077744,20.5637924 C5.87305184,17.2916265 5.88608256,15.3757945 7.13466275,13.6809799 C8.51042533,11.8170451 10.3732724,11.3130218 14.6005943,11.0059985 C14.7544889,10.9944838 14.7544889,10.9944838 14.9083377,10.9828651 C17.1625787,10.8118242 18.2317496,10.6241085 18.8342858,10.1909279 C19.4241299,9.76668045 19.9210903,8.83487147 20.788314,6.74432284 C20.8367546,6.62747223 20.8367546,6.62747223 20.8850743,6.51076682 C21.1038888,5.98145939 21.2033998,5.74333909 21.3320416,5.44511677 C22.6020311,2.50097978 23.8114143,0.910977089 25.8073105,0.271103632 C27.9834326,-0.424356186 29.6706848,0.201989694 33.2988935,2.4095984 L33.3474173,2.4390278 L33.4138278,2.47929752 C33.4266006,2.48704136 33.4419285,2.49633386 33.4623656,2.50872387 C33.613863,2.600501 33.613863,2.600501 33.7652189,2.69181791 C35.5789293,3.78436145 36.5805957,4.24862145 37.35,4.24862145 C38.119004,4.24862145 39.1246361,3.78310598 40.9272615,2.69624067 C41.0864122,2.60011712 41.0864122,2.60011712 41.2457088,2.5034696 C41.3228917,2.45660441 41.3228917,2.45660441 41.399521,2.41005357 C45.0186285,0.202772452 46.7161625,-0.42761733 48.8932433,0.271213949 Z M43.5519675,5.88014886 C40.5948155,7.68366224 39.1758775,8.31979238 37.3462332,8.31979238 C35.5202332,8.31979238 34.1303607,7.69486554 31.1444455,5.87839759 C30.9374599,5.75232833 30.8444064,5.69574424 30.728524,5.62562556 C30.517871,5.49816258 30.3380597,5.39064412 30.1664663,5.28988175 C28.8215412,4.50012032 27.9237351,4.1080721 27.3277551,4.10805065 C27.2404505,4.10708404 27.1536188,4.11951298 27.0747777,4.14340869 C26.4405088,4.34631231 25.8190996,5.36164375 24.9642467,7.39197847 C24.8872419,7.57487038 24.832788,7.70593267 24.6881452,8.05546943 C23.3960094,11.1830146 22.6679653,12.4651565 21.2493416,13.4852242 C19.9277498,14.4364537 18.3742597,14.7914011 15.5979473,15.0127951 C15.4070502,15.0280179 15.2617398,15.0390728 14.9088476,15.0655094 C12.0707155,15.2768915 10.8789605,15.5050627 10.4556848,16.0790266 C10.1046677,16.556186 10.1876928,17.67912 10.6401398,19.6187538 C10.6830934,19.8028954 10.7287685,19.9934559 10.7877338,20.2356895 C10.8222792,20.3773892 10.8222792,20.3773892 10.8567031,20.518183 C10.8690114,20.5684671 10.8690114,20.5684671 10.8813308,20.618811 C11.0103103,21.1459763 11.0816453,21.4439931 11.1557952,21.7719338 C11.669127,24.0422301 11.759836,25.5833124 11.2897444,27.0144906 C10.7750202,28.5805782 9.74509167,29.7102793 7.41937668,31.6561935 C7.29647062,31.7589509 7.29647062,31.7589509 7.17386988,31.8613006 C4.95118966,33.7163875 4.11039766,34.6118863 4.11039766,35.3797587 C4.11039766,35.8960742 4.61171485,36.6055207 5.59219579,37.5255176 C5.90004188,37.8143733 6.24094673,38.1130537 6.69755895,38.4986836 C6.7348061,38.5301405 6.76797851,38.5581184 6.80258207,38.5872433 L6.91619214,38.6826857 C6.98064981,38.7367537 7.06071586,38.8038115 7.17497268,38.8994725 C7.30717713,39.0100274 7.30717713,39.0100274 7.43979264,39.1210963 C9.7507486,41.058191 10.7769497,42.1857812 11.2895775,43.7451559 C11.842853,45.4307454 11.6722854,46.9077201 10.8564972,50.2421475 C10.8220519,50.3828891 10.8220519,50.3828891 10.7875082,50.5244569 C10.7277439,50.7697616 10.6814299,50.9629082 10.6379183,51.1495116 C10.1873281,53.0819076 10.1049911,54.2042902 10.4552635,54.68103 C10.8264188,55.1844866 11.9705561,55.4550534 14.0831206,55.6307005 L14.2732109,55.6462113 C14.4323428,55.6589276 14.6078436,55.6722694 14.9089183,55.694856 C15.2656529,55.7217131 15.4082368,55.7326097 15.5991677,55.7478979 C18.3756895,55.9702187 19.9280281,56.3249544 21.2489828,57.2750125 C22.5890008,58.2384339 23.3882493,59.5834595 24.5023663,62.2582382 C24.5541665,62.3826005 24.5955515,62.4824994 24.6878465,62.7056923 C24.8266648,63.0410586 24.8861107,63.1840378 24.9635491,63.3677887 C25.818181,65.3957157 26.4418251,66.4145872 27.0720929,66.6174497 C27.7087085,66.8176629 28.8015535,66.3104495 31.1471401,64.8831239 C34.1108667,63.0748475 35.522165,62.440552 37.35,62.440552 C39.1280783,62.440552 40.5559446,63.0682457 43.3607646,64.7656271 C43.4589442,64.8250612 43.4589442,64.8250612 43.5575291,64.8847695 C45.9050343,66.3132629 46.9967398,66.8201473 47.6298677,66.6199511 C48.2643302,66.4161943 48.8872159,65.3982983 49.7409232,63.3694503 C49.8180837,63.1860772 49.8763998,63.0456039 50.0160873,62.7076553 C50.104352,62.4942251 50.1439179,62.398709 50.1933597,62.2799402 C51.3147726,59.5860893 52.1114418,58.242937 53.4557818,57.2769083 C54.7768736,56.3267515 56.3305135,55.9716806 59.1030104,55.7505739 C59.2946601,55.7352898 59.4421532,55.7240737 59.7940963,55.6977285 C62.6328991,55.4864121 63.8249897,55.2582113 64.2484606,54.6839825 C64.6002179,54.206633 64.5172452,53.0840169 64.0642656,51.1428208 C64.0214729,50.959437 63.975984,50.7696874 63.9172281,50.5283278 C63.8827132,50.3867593 63.8827132,50.3867593 63.8483101,50.2460521 C63.8360017,50.195744 63.8360017,50.195744 63.8236824,50.1453763 C63.7320228,49.7705663 63.66961,49.5121032 63.6145197,49.2760394 L63.5505231,48.9975019 C63.0359659,46.7225267 62.9447763,45.1803477 63.4152579,43.7479826 C63.9449239,42.1237369 64.9371215,41.0623704 67.5254668,38.9017612 C67.7626783,38.7037273 67.8678166,38.6157401 67.9997226,38.5045461 C68.4670251,38.1106195 68.8176138,37.8033234 69.1324294,37.5066682 C70.0958647,36.5988097 70.5898116,35.8944433 70.5898116,35.3822398 C70.5898116,34.86541 70.087893,34.1555925 69.1059153,33.2346883 C68.7984416,32.9463378 68.4581252,32.6482588 68.001891,32.2629903 C67.8720902,32.1533795 67.7935543,32.0875067 67.5261565,31.863629 C67.3959657,31.7548249 67.3959657,31.7548249 67.2653796,31.6455237 C64.9506826,29.7065324 63.9234525,28.5783128 63.4104225,27.0168425 C62.8571281,25.3311956 63.0278588,23.8529164 63.8435391,20.5205299 C64.5062046,17.8178909 64.653675,16.6375558 64.2448571,16.081132 C63.8735949,15.5781422 62.7281237,15.3071403 60.6168383,15.1313486 C60.3873702,15.1122424 60.2070548,15.0983487 59.7910817,15.0671425 C59.4288418,15.0398709 59.2912659,15.029363 59.1008602,15.0141322 C56.3223488,14.7918762 54.7716809,14.4376689 53.4510412,13.4870031 C52.1105842,12.5234375 51.3139276,11.1821338 50.1960534,8.5005153 C50.1450329,8.37812443 50.1037076,8.27847571 50.0121591,8.05735329 C49.8740063,7.72363396 49.8134014,7.57790117 49.7355916,7.39333938 C48.8815279,5.36753276 48.2572535,4.3480574 47.6277617,4.14574345 C46.9858197,3.94354784 45.9122059,4.44268561 43.5519675,5.88014886 Z M51.4609228,26.0997394 C53.5400396,28.2028776 53.5146979,31.5878523 51.4070042,33.6573917 L38.4365882,46.5889583 C36.3417493,48.6762182 32.9462389,48.6762182 30.851352,46.5889104 L23.2684797,39.0313042 C21.1727488,36.9435547 21.1719434,33.5578568 23.2666757,31.4691058 C25.3612972,29.3804653 28.7579774,29.3796626 30.8536838,31.4673877 L34.6433077,35.2450789 L43.8216632,26.0979798 L43.8398305,26.0797413 L43.8760221,26.0434563 C45.9860776,23.9713789 49.3818372,23.9966327 51.4609228,26.0997394 Z M46.5944905,28.8620663 L36.0285544,39.3944347 C35.2624525,40.1575038 34.0208459,40.1575038 33.2543741,39.394306 L28.0776141,34.2340669 C27.5162748,33.6740505 26.6054688,33.6737542 26.0435932,34.2334839 C25.4818124,34.7928455 25.4815152,35.7002811 26.0428442,36.2600134 L33.6192107,43.8112911 C34.1921708,44.3582151 35.0958175,44.3582151 35.6614611,43.8184275 L48.6317723,30.8913335 C48.6442904,30.8744312 48.6488029,30.8700367 48.6532274,30.8656273 L48.6706615,30.8479452 C49.2225774,30.2781592 49.2066127,29.3706152 48.6349885,28.8206024 C48.0632475,28.2704773 47.1522997,28.2864376 46.5944905,28.8620663 Z" id="Combined-Shape"></path>
        </g>
    </g>
</svg>