<?xml version="1.0" encoding="UTF-8"?>
<svg width="80px" height="80px" viewBox="0 0 80 80" version="1.1" xmlns="http://www.w3.org/2000/svg" xmlns:xlink="http://www.w3.org/1999/xlink">
    <title>Icons/Time</title>
    <g id="Symbols" stroke="none" stroke-width="1" fill="none" fill-rule="evenodd">
        <g id="Group" fill="#BD1E73" transform="translate(6.015106, 6.015106)">
            <path d="M33.9848937,0 C52.6808546,0 67.9697873,15.2889327 67.9697873,33.9848937 C67.9697873,52.6808546 52.6808546,67.9697873 33.9848937,67.9697873 C15.2889327,67.9697873 0,52.6808546 0,33.9848937 C0,15.2889327 15.2889327,0 33.9848937,0 Z M33.9848937,3.96978734 C17.4813857,3.96978734 3.96978734,17.4813857 3.96978734,33.9848937 C3.96978734,50.4884016 17.4813857,64 33.9848937,64 C50.4884016,64 64,50.4884016 64,33.9848937 C64,17.4813857 50.4884016,3.96978734 33.9848937,3.96978734 Z M33.9848937,51.9170124 C35.0811202,51.9170124 35.9697873,52.8056796 35.9697873,53.9019061 L35.9697873,57.8853086 C35.9697873,58.9815351 35.0811202,59.8702023 33.9848937,59.8702023 C32.8886672,59.8702023 32,58.9815351 32,57.8853086 L32,53.9019061 C32,52.8056796 32.8886672,51.9170124 33.9848937,51.9170124 Z M18.4930829,49.4766912 C19.2709086,50.2545169 19.2709086,51.5155294 18.4930829,52.2933551 C17.7152572,53.0711808 16.4542447,53.0711808 15.676419,52.2933551 C14.8985933,51.5155294 14.8985933,50.2545169 15.676419,49.4766912 C16.4542447,48.6988655 17.7152572,48.6988655 18.4930829,49.4766912 Z M52.2933684,49.4766912 C53.0711941,50.2545169 53.0711941,51.5155294 52.2933684,52.2933551 C51.5155426,53.0711808 50.2545302,53.0711808 49.4767045,52.2933551 C48.6988787,51.5155294 48.6988787,50.2545169 49.4767045,49.4766912 C50.2545302,48.6988655 51.5155426,48.6988655 52.2933684,49.4766912 Z M33.9848937,20.0497925 L34.1330286,20.0552368 C35.160072,20.1310093 35.9697873,20.9882882 35.9697873,22.0346862 L35.9688937,33.1631011 L47.3386329,44.5315694 C48.1137821,45.3067186 48.1137821,46.5634837 47.3386329,47.3386329 C46.5634837,48.1137821 45.3067186,48.1137821 44.5315694,47.3386329 L32.5813619,35.3884254 C32.2091221,35.0161857 32,34.5113202 32,33.9848937 L32,22.0346862 C32,20.9384597 32.8886672,20.0497925 33.9848937,20.0497925 Z M14.0678812,32 C15.1641077,32 16.0527749,32.8886672 16.0527749,33.9848937 C16.0527749,35.0811202 15.1641077,35.9697873 14.0678812,35.9697873 L10.0844787,35.9697873 C8.98825223,35.9697873 8.09958506,35.0811202 8.09958506,33.9848937 C8.09958506,32.8886672 8.98825223,32 10.0844787,32 Z M57.8853086,32 C58.9815351,32 59.8702023,32.8886672 59.8702023,33.9848937 C59.8702023,35.0811202 58.9815351,35.9697873 57.8853086,35.9697873 L53.9019061,35.9697873 C52.8056796,35.9697873 51.9170124,35.0811202 51.9170124,33.9848937 C51.9170124,32.8886672 52.8056796,32 53.9019061,32 Z M52.2933949,15.676419 C53.0712206,16.4542447 53.0712206,17.7152572 52.2933949,18.4930829 C51.5155692,19.2709086 50.254424,19.2709086 49.476731,18.4930829 C48.6989053,17.7152572 48.6989053,16.4542447 49.476731,15.676419 C50.254424,14.8985933 51.5155692,14.8985933 52.2933949,15.676419 Z M18.4930563,15.676419 C19.2708821,16.4542447 19.2708821,17.7152572 18.4930563,18.4930829 C17.7153634,19.2709086 16.4542182,19.2709086 15.6763924,18.4930829 C14.8985667,17.7152572 14.8985667,16.4542447 15.6763924,15.676419 C16.4542182,14.8985933 17.7153634,14.8985933 18.4930563,15.676419 Z M33.9848937,8.09958506 C35.0811202,8.09958506 35.9697873,8.98825223 35.9697873,10.0844787 L35.9697873,14.0678812 C35.9697873,15.1641077 35.0811202,16.0527749 33.9848937,16.0527749 C32.8886672,16.0527749 32,15.1641077 32,14.0678812 L32,10.0844787 C32,8.98825223 32.8886672,8.09958506 33.9848937,8.09958506 Z" id="Combined-Shape"></path>
        </g>
    </g>
</svg>