<?xml version="1.0" encoding="UTF-8"?>
<svg width="24px" height="24px" viewBox="0 0 24 24" version="1.1" xmlns="http://www.w3.org/2000/svg" xmlns:xlink="http://www.w3.org/1999/xlink">
    <title>Icons/user</title>
    <g id="Symbols" stroke="none" stroke-width="1" fill="none" fill-rule="evenodd">
        <g id="Icons/user" fill="#000000">
            <path d="M11.9684758,13.0121003 C9.12732507,13.2689123 6.9627668,16.0036278 7.00048547,18.856091 L7.00048547,19.000747 C7.00048547,19.5530272 7.44820335,20.0007763 8.00048352,20.0007763 C8.55276369,20.0007763 9.00048157,19.5530272 9.00048157,19.000747 L9.00048157,18.8160911 C8.97041912,17.0646883 10.2629166,15.2371585 12.0004757,15.0154402 C13.8346284,14.8335655 15.4689689,16.1730004 15.6508436,18.0071531 C15.6615936,18.1155904 15.667031,18.2244652 15.6671248,18.3334337 L15.6671248,19.0007782 C15.6671248,19.5530584 16.1148427,20.0007763 16.6671228,20.0007763 C17.219403,20.0007763 17.6671209,19.5530584 17.6671209,19.0007782 L17.6671209,18.3334337 C17.6638709,15.3845957 15.2707193,12.9967566 12.3219126,12.9999934 C12.2039753,13.0001316 12.0861005,13.0041629 11.9684758,13.0121003 Z M12.3337954,11.9999844 C14.5429082,11.9999844 16.3337797,10.2091129 16.3337797,8 C16.3337797,5.7908715 14.5429082,4 12.3337954,4 C10.1246669,4 8.33379537,5.7908715 8.33379537,8 C8.33601411,10.2082379 10.1255731,11.9977969 12.3337954,11.9999844 Z M12.3337915,5.99999609 C13.4383479,5.99999609 14.3337915,6.89543184 14.3337915,7.99999609 C14.3337915,9.10455253 13.4383479,9.99999609 12.3337915,9.99999609 C11.2292272,9.99999609 10.3337915,9.10455253 10.3337915,7.99999609 C10.3337915,6.89543184 11.2292272,5.99999609 12.3337915,5.99999609 Z" id="Shape"></path>
        </g>
    </g>
</svg>