<?xml version="1.0" encoding="UTF-8"?>
<svg width="24px" height="24px" viewBox="0 0 24 24" version="1.1" xmlns="http://www.w3.org/2000/svg" xmlns:xlink="http://www.w3.org/1999/xlink">
    <title>Icons/Youtube</title>
    <g id="Symbols" stroke="none" stroke-width="1" fill="none" fill-rule="evenodd">
        <g id="Icons/Youtube" fill="#000000">
            <path d="M12,0 C18.6229687,0 24,5.37703125 24,12 C24,18.6229687 18.6229688,24 12,24 C5.37703125,24 0,18.6229688 0,12 C0,5.37703125 5.37703125,0 12,0 Z M19.1866406,8.38959375 C19.0141406,7.74417188 18.5059219,7.236 17.8605469,7.0635 C16.6906406,6.75 12,6.75 12,6.75 C12,6.75 7.30935937,6.75 6.13945312,7.0635 C5.49421875,7.236 4.98585937,7.74417188 4.81335937,8.38959375 C4.5,9.55935938 4.5,12.0000938 4.5,12.0000938 C4.5,12.0000938 4.5,14.4407344 4.81335937,15.6104063 C4.98585937,16.2558281 5.49421875,16.7641875 6.13945312,16.9366406 C7.30935937,17.25 12,17.25 12,17.25 C12,17.25 16.6906406,17.25 17.8605469,16.9366406 C18.5059219,16.7641875 19.0141406,16.2558281 19.1866406,15.6104063 C19.5,14.4407344 19.5,12.0000938 19.5,12.0000938 C19.5,12.0000938 19.5,9.55935938 19.1866406,8.38959375 Z M10.4999531,14.2501406 L10.4999531,9.75004687 L14.397,12.0000937 L10.4999531,14.2501406 L10.4999531,14.2501406 Z" id="Shape"></path>
        </g>
    </g>
</svg>