<?xml version="1.0" encoding="UTF-8"?>
<svg width="199px" height="47px" viewBox="0 0 199 47" version="1.1" xmlns="http://www.w3.org/2000/svg" xmlns:xlink="http://www.w3.org/1999/xlink">
    <title>General/Logo/White</title>
    <g id="Symbols" stroke="none" stroke-width="1" fill="none" fill-rule="evenodd">
        <g id="General/Logo/White" fill="#FFFFFF">
            <g id="REPR" transform="translate(0.000000, 12.000054)">
                <path d="M16.5774378,23 L11.0191205,13.5042857 C12.4493308,13.0771429 13.6195029,12.2885714 14.5296367,11.0728571 C15.4722753,9.85714286 15.9273422,8.44428571 15.9273422,6.9 C15.9273422,4.99428571 15.2447419,3.38428571 13.9120459,2.03714286 C12.5793499,0.69 10.9866157,0 9.10133843,0 L0,0 L0,23 L2.27533461,23 L2.27533461,13.8 L8.64627151,13.8 L13.9770554,23 L16.5774378,23 Z M9.10133843,2.16857143 C10.3690249,2.16857143 11.4416826,2.62857143 12.3193117,3.54857143 C13.1969407,4.46857143 13.6520076,5.58571429 13.6520076,6.9 C13.6520076,8.18142857 13.1969407,9.29857143 12.3193117,10.2514286 C11.4416826,11.1714286 10.3690249,11.6314286 9.10133843,11.6314286 L2.27533461,11.6314286 L2.27533461,2.16857143 L9.10133843,2.16857143 Z" id="Shape"></path>
                <polygon id="Path" points="26.166348 12.4857143 36.2428298 12.4857143 36.2428298 10.3171429 26.166348 10.3171429 26.166348 2.16857143 37.0554493 2.16857143 37.0554493 0 23.8910134 0 23.8910134 23 37.2179732 23 37.2179732 20.8314286 26.166348 20.8314286"></polygon>
                <path d="M45.1816444,0 L45.1816444,23 L47.456979,23 L47.456979,14.4571429 L53.3078394,14.4571429 C55.3556405,14.4571429 57.0458891,13.7671429 58.4110899,12.3871429 C59.7762906,11.0071429 60.458891,9.29857143 60.458891,7.22857143 C60.458891,5.15857143 59.7762906,3.45 58.4110899,2.07 C57.0458891,0.69 55.3556405,0 53.3078394,0 L45.1816444,0 Z M47.456979,12.2885714 L47.456979,2.16857143 L53.3078394,2.16857143 C54.7055449,2.16857143 55.875717,2.66142857 56.7858509,3.61428571 C57.7284895,4.56714286 58.1835564,5.75 58.1835564,7.22857143 C58.1835564,8.70714286 57.7284895,9.92285714 56.7858509,10.8757143 C55.875717,11.8285714 54.7055449,12.2885714 53.3078394,12.2885714 L47.456979,12.2885714 Z" id="Shape"></path>
                <path d="M85,23 L79.4416826,13.5042857 C80.8718929,13.0771429 82.042065,12.2885714 82.9521989,11.0728571 C83.8948375,9.85714286 84.3499044,8.44428571 84.3499044,6.9 C84.3499044,4.99428571 83.667304,3.38428571 82.334608,2.03714286 C81.001912,0.69 79.4091778,0 77.5239006,0 L68.4225622,0 L68.4225622,23 L70.6978968,23 L70.6978968,13.8 L77.0688337,13.8 L82.3996176,23 L85,23 Z M77.5239006,2.16857143 C78.791587,2.16857143 79.8642447,2.62857143 80.7418738,3.54857143 C81.6195029,4.46857143 82.0745698,5.58571429 82.0745698,6.9 C82.0745698,8.18142857 81.6195029,9.29857143 80.7418738,10.2514286 C79.8642447,11.1714286 78.791587,11.6314286 77.5239006,11.6314286 L70.6978968,11.6314286 L70.6978968,2.16857143 L77.5239006,2.16857143 Z" id="Shape"></path>
            </g>
            <g id="FIT" transform="translate(152.000000, 12.000054)">
                <polygon id="Path" points="12.9372822 0 0 0 0 23 2.29268293 23 2.29268293 12.8142857 12.445993 12.8142857 12.445993 10.6457143 2.29268293 10.6457143 2.29268293 2.16857143 12.9372822 2.16857143"></polygon>
                <polygon id="Path" points="20.9616725 23 23.2543554 23 23.2543554 0 20.9616725 0"></polygon>
                <polygon id="Path" points="30.6236934 0 30.6236934 2.16857143 37.6655052 2.16857143 37.6655052 23 39.9581882 23 39.9581882 2.16857143 47 2.16857143 47 0"></polygon>
            </g>
            <path d="M116.770621,46.4966697 C117.908401,45.1758566 118.766819,43.6555136 119.457461,42.1188113 C121.032477,38.6149691 121.699571,34.1555823 121.555074,30.1899249 C121.398268,25.8748219 120.314007,22.3471112 117.406943,18.1425006 C113.412138,12.3641781 106.833783,10.5670677 106.103271,10.4018655 C109.870091,8.2451186 110.603547,5.46537698 110.603547,5.46537698 C111.027672,4.12686367 111.04453,2.86612413 110.866585,1.79606441 C110.820024,1.51634704 110.763564,1.27819841 110.709511,1.03012692 C101.096988,3.97641167 94.1036052,12.9338039 94.1036052,23.5327588 C94.1036052,36.0937582 103.931,46.3263719 116.296457,47.0000536 C116.455939,46.8332423 116.620773,46.670722 116.770621,46.4966697" id="Fill-14"></path>
            <path d="M117.583711,2.84217094e-14 C116.184499,2.84217094e-14 114.821679,0.145356484 113.489899,0.380555075 C114.578978,1.7169229 114.84817,2.97819881 114.813919,4.71014009 C114.731235,8.90321874 111.744162,10.3945977 111.744162,10.3945977 C111.744162,10.3945977 118.331884,11.6700875 123.407204,18.6935948 C129.91224,27.8588306 125.984065,37.5912786 125.984065,37.5912786 C124.554081,41.7409112 121.982571,44.8486436 119.478761,46.9142075 C119.478761,46.9142075 119.474747,46.9313714 119.442369,46.9710628 C131.538366,46.0187365 141.063923,35.9003697 141.063923,23.532732 C141.063923,10.5359314 130.551505,2.84217094e-14 117.583711,2.84217094e-14" id="Fill-16"></path>
        </g>
    </g>
</svg>